<?xml version="1.0" encoding="UTF-8" standalone="no"?>
<svg width="800" height="600" xmlns="http://www.w3.org/2000/svg">
  <style>
    .title { font: bold 24px sans-serif; fill: #10b981; }
    .subtitle { font: bold 18px sans-serif; fill: #059669; }
    .label { font: 14px sans-serif; fill: #f3f4f6; }
    .small-label { font: 12px sans-serif; fill: #d1d5db; }
    .box { fill: #1f2937; stroke: #10b981; stroke-width: 2; rx: 10; ry: 10; }
    .component { fill: #374151; stroke: #34d399; stroke-width: 1.5; rx: 8; ry: 8; }
    .arrow { stroke: #10b981; stroke-width: 2; fill: none; marker-end: url(#arrowhead); }
    .dashed { stroke-dasharray: 5,5; }
    .text-center { text-anchor: middle; }
    .text-right { text-anchor: end; }
    .order { fill: #34d399; r: 5; }
    .liquidity { fill: #059669; r: 5; }
  </style>
  
  <defs>
    <marker id="arrowhead" markerWidth="10" markerHeight="7" refX="9" refY="3.5" orient="auto">
      <polygon points="0 0, 10 3.5, 0 7" fill="#10b981" />
    </marker>
  </defs>
  
  <rect width="800" height="600" fill="#111827" />
  
  <text x="400" y="40" class="title text-center">ハイブリッドDEXアーキテクチャ</text>
  <text x="400" y="70" class="subtitle text-center">オーダーブックとAMMの融合</text>
  
  <!-- Main Components -->
  <rect x="50" y="100" width="700" height="450" class="box" />
  
  <!-- Order Book Component -->
  <rect x="100" y="130" width="250" height="200" class="component" />
  <text x="225" y="150" class="subtitle text-center">オーダーブックエンジン</text>
  
  <!-- Buy Orders -->
  <rect x="120" y="170" width="100" height="20" fill="#1f2937" stroke="#34d399" rx="3" ry="3" />
  <rect x="120" y="195" width="90" height="20" fill="#1f2937" stroke="#34d399" rx="3" ry="3" />
  <rect x="120" y="220" width="80" height="20" fill="#1f2937" stroke="#34d399" rx="3" ry="3" />
  <rect x="120" y="245" width="70" height="20" fill="#1f2937" stroke="#34d399" rx="3" ry="3" />
  <rect x="120" y="270" width="60" height="20" fill="#1f2937" stroke="#34d399" rx="3" ry="3" />
  
  <text x="170" y="185" class="small-label text-center">$1000 - 0.5 ETH</text>
  <text x="165" y="210" class="small-label text-center">$990 - 1.2 ETH</text>
  <text x="160" y="235" class="small-label text-center">$980 - 2.0 ETH</text>
  <text x="155" y="260" class="small-label text-center">$970 - 3.5 ETH</text>
  <text x="150" y="285" class="small-label text-center">$960 - 5.0 ETH</text>
  
  <!-- Sell Orders -->
  <rect x="230" y="170" width="100" height="20" fill="#1f2937" stroke="#34d399" rx="3" ry="3" />
  <rect x="230" y="195" width="90" height="20" fill="#1f2937" stroke="#34d399" rx="3" ry="3" />
  <rect x="230" y="220" width="80" height="20" fill="#1f2937" stroke="#34d399" rx="3" ry="3" />
  <rect x="230" y="245" width="70" height="20" fill="#1f2937" stroke="#34d399" rx="3" ry="3" />
  <rect x="230" y="270" width="60" height="20" fill="#1f2937" stroke="#34d399" rx="3" ry="3" />
  
  <text x="280" y="185" class="small-label text-center">$1010 - 0.8 ETH</text>
  <text x="275" y="210" class="small-label text-center">$1020 - 1.5 ETH</text>
  <text x="270" y="235" class="small-label text-center">$1030 - 2.2 ETH</text>
  <text x="265" y="260" class="small-label text-center">$1040 - 3.0 ETH</text>
  <text x="260" y="285" class="small-label text-center">$1050 - 4.5 ETH</text>
  
  <text x="225" y="310" class="small-label text-center">大量取引に最適</text>
  
  <!-- AMM Component -->
  <rect x="450" y="130" width="250" height="200" class="component" />
  <text x="575" y="150" class="subtitle text-center">AMM (自動マーケットメーカー)</text>
  
  <!-- Liquidity Pool -->
  <ellipse cx="575" cy="220" rx="100" ry="60" fill="#1f2937" stroke="#34d399" stroke-width="1.5" />
  <text x="575" y="210" class="label text-center">流動性プール</text>
  <text x="575" y="230" class="small-label text-center">ETH - USDC</text>
  <text x="575" y="250" class="small-label text-center">x * y = k</text>
  
  <!-- Liquidity Providers -->
  <circle cx="500" cy="170" class="liquidity" />
  <circle cx="520" cy="160" class="liquidity" />
  <circle cx="540" cy="155" class="liquidity" />
  <circle cx="560" cy="160" class="liquidity" />
  <circle cx="580" cy="155" class="liquidity" />
  <circle cx="600" cy="160" class="liquidity" />
  <circle cx="620" cy="170" class="liquidity" />
  <circle cx="640" cy="180" class="liquidity" />
  
  <text x="575" y="310" class="small-label text-center">小規模取引と新興トークンに最適</text>
  
  <!-- Smart Order Routing -->
  <rect x="250" y="350" width="300" height="150" class="component" />
  <text x="400" y="370" class="subtitle text-center">スマートオーダールーティング</text>
  
  <path d="M300 400 C350 380, 450 380, 500 400" stroke="#34d399" stroke-width="2" fill="none" marker-end="url(#arrowhead)" />
  <path d="M500 450 C450 470, 350 470, 300 450" stroke="#34d399" stroke-width="2" fill="none" marker-end="url(#arrowhead)" />
  
  <circle cx="300" cy="400" class="order" />
  <circle cx="300" cy="450" class="order" />
  <circle cx="500" cy="400" class="order" />
  <circle cx="500" cy="450" class="order" />
  
  <text x="400" y="420" class="small-label text-center">最良価格と流動性を自動検出</text>
  <text x="400" y="440" class="small-label text-center">取引サイズに応じた最適ルーティング</text>
  <text x="400" y="460" class="small-label text-center">スリッページ最小化</text>
  <text x="400" y="480" class="small-label text-center">手数料最適化</text>
  
  <!-- Connecting Arrows -->
  <path d="M225 330 L300 350" class="arrow" />
  <path d="M575 330 L500 350" class="arrow" />
  
  <!-- User -->
  <circle cx="400" cy="550" r="20" fill="#1f2937" stroke="#10b981" stroke-width="2" />
  <text x="400" y="555" class="small-label text-center">ユーザー</text>
  
  <path d="M400 530 L400 500" class="arrow" />
</svg>