<svg xmlns="http://www.w3.org/2000/svg" viewBox="0 0 900 600">
  <rect fill="#de2910" height="600" width="900"/>
  <g fill="#ffde00">
    <path d="M5,20 9.5,31.5 22,32.5 12,40.5 15.5,53 5,45.5 -5.5,53 -2,40.5 -12,32.5 0.5,31.5 z" transform="translate(225,150) scale(3)"/>
    <path d="M5,20 9.5,31.5 22,32.5 12,40.5 15.5,53 5,45.5 -5.5,53 -2,40.5 -12,32.5 0.5,31.5 z" transform="translate(340,70) rotate(23) scale(1.5)"/>
    <path d="M5,20 9.5,31.5 22,32.5 12,40.5 15.5,53 5,45.5 -5.5,53 -2,40.5 -12,32.5 0.5,31.5 z" transform="translate(390,160) rotate(45) scale(1.5)"/>
    <path d="M5,20 9.5,31.5 22,32.5 12,40.5 15.5,53 5,45.5 -5.5,53 -2,40.5 -12,32.5 0.5,31.5 z" transform="translate(340,250) rotate(67) scale(1.5)"/>
    <path d="M5,20 9.5,31.5 22,32.5 12,40.5 15.5,53 5,45.5 -5.5,53 -2,40.5 -12,32.5 0.5,31.5 z" transform="translate(225,300) rotate(90) scale(1.5)"/>
  </g>
</svg>