<svg width="512" height="512" viewBox="0 0 512 512" fill="none" xmlns="http://www.w3.org/2000/svg">
  <defs>
    <linearGradient id="gradient1" x1="0%" y1="0%" x2="100%" y2="100%">
      <stop offset="0%" stop-color="#0071E3" />
      <stop offset="100%" stop-color="#5E5CE6" />
    </linearGradient>
    <linearGradient id="gradient2" x1="0%" y1="0%" x2="100%" y2="100%">
      <stop offset="0%" stop-color="#5E5CE6" />
      <stop offset="100%" stop-color="#00C7FF" />
    </linearGradient>
    <filter id="glow" x="-50%" y="-50%" width="200%" height="200%">
      <feGaussianBlur stdDeviation="15" result="blur" />
      <feComposite in="SourceGraphic" in2="blur" operator="over" />
    </filter>
  </defs>
  
  <!-- Background Hexagon -->
  <path d="M256 40L448 160V400L256 520L64 400V160L256 40Z" fill="url(#gradient1)" filter="url(#glow)" />
  
  <!-- Inner Hexagon -->
  <path d="M256 120L384 200V360L256 440L128 360V200L256 120Z" fill="#0A142A" />
  
  <!-- Center Circle -->
  <circle cx="256" cy="256" r="80" fill="url(#gradient2)" />
  
  <!-- AI Network Lines -->
  <g opacity="0.7" stroke="white" stroke-width="2">
    <line x1="256" y1="176" x2="256" y2="120" />
    <line x1="256" y1="336" x2="256" y2="392" />
    <line x1="176" y1="256" x2="128" y2="256" />
    <line x1="336" y1="256" x2="384" y2="256" />
    <line x1="198" y1="198" x2="160" y2="160" />
    <line x1="314" y1="198" x2="352" y2="160" />
    <line x1="198" y1="314" x2="160" y2="352" />
    <line x1="314" y1="314" x2="352" y2="352" />
  </g>
  
  <!-- Connection Nodes -->
  <circle cx="256" cy="120" r="8" fill="white" />
  <circle cx="256" cy="392" r="8" fill="white" />
  <circle cx="128" cy="256" r="8" fill="white" />
  <circle cx="384" cy="256" r="8" fill="white" />
  <circle cx="160" cy="160" r="8" fill="white" />
  <circle cx="352" cy="160" r="8" fill="white" />
  <circle cx="160" cy="352" r="8" fill="white" />
  <circle cx="352" cy="352" r="8" fill="white" />
  
  <!-- Pulse Animation (Static Representation) -->
  <circle cx="256" cy="256" r="100" stroke="white" stroke-width="2" fill="none" opacity="0.3" />
  <circle cx="256" cy="256" r="120" stroke="white" stroke-width="1.5" fill="none" opacity="0.2" />
  <circle cx="256" cy="256" r="140" stroke="white" stroke-width="1" fill="none" opacity="0.1" />
</svg>