<?xml version="1.0" encoding="UTF-8" standalone="no"?>
<svg width="800" height="500" viewBox="0 0 800 500" fill="none" xmlns="http://www.w3.org/2000/svg">
  <rect width="800" height="500" rx="12" fill="#1A1D2E"/>
  <rect x="20" y="20" width="760" height="460" rx="8" fill="#232738"/>
  
  <!-- サイドバー -->
  <rect x="20" y="20" width="200" height="460" fill="#1E2132"/>
  
  <!-- ロゴ -->
  <circle cx="60" cy="60" r="24" fill="#6C5CE7"/>
  <path d="M60 36C46.7452 36 36 46.7452 36 60C36 73.2548 46.7452 84 60 84C73.2548 84 84 73.2548 84 60C84 46.7452 73.2548 36 60 36ZM60 48C66.6274 48 72 53.3726 72 60C72 66.6274 66.6274 72 60 72C53.3726 72 48 66.6274 48 60C48 53.3726 53.3726 48 60 48Z" fill="white"/>
  <text x="100" y="65" font-family="Arial, sans-serif" font-size="18" font-weight="bold" fill="white">ValidatorHub</text>
  
  <!-- サイドバーメニュー -->
  <rect x="40" y="120" width="160" height="40" rx="4" fill="#2D3348"/>
  <text x="70" y="145" font-family="Arial, sans-serif" font-size="14" fill="white">ダッシュボード</text>
  
  <text x="70" y="195" font-family="Arial, sans-serif" font-size="14" fill="#8A94A7">ノード管理</text>
  <text x="70" y="235" font-family="Arial, sans-serif" font-size="14" fill="#8A94A7">パフォーマンス</text>
  <text x="70" y="275" font-family="Arial, sans-serif" font-size="14" fill="#8A94A7">報酬履歴</text>
  <text x="70" y="315" font-family="Arial, sans-serif" font-size="14" fill="#8A94A7">アラート設定</text>
  <text x="70" y="355" font-family="Arial, sans-serif" font-size="14" fill="#8A94A7">ヘルプ</text>
  
  <!-- メインコンテンツ -->
  <rect x="240" y="40" width="520" height="100" rx="8" fill="#2D3348"/>
  <text x="260" y="70" font-family="Arial, sans-serif" font-size="16" fill="#8A94A7">バリデータステータス</text>
  <circle cx="280" cy="100" r="10" fill="#4CD137"/>
  <text x="300" y="105" font-family="Arial, sans-serif" font-size="18" font-weight="bold" fill="white">アクティブ</text>
  <text x="400" y="70" font-family="Arial, sans-serif" font-size="16" fill="#8A94A7">累計報酬</text>
  <text x="400" y="105" font-family="Arial, sans-serif" font-size="18" font-weight="bold" fill="white">12,345.67 OPT</text>
  <text x="600" y="70" font-family="Arial, sans-serif" font-size="16" fill="#8A94A7">委任総額</text>
  <text x="600" y="105" font-family="Arial, sans-serif" font-size="18" font-weight="bold" fill="white">1,234,567 OPT</text>
  
  <!-- パフォーマンス指標 -->
  <text x="240" y="170" font-family="Arial, sans-serif" font-size="18" font-weight="bold" fill="white">パフォーマンス指標</text>
  
  <rect x="240" y="190" width="250" height="120" rx="8" fill="#2D3348"/>
  <text x="260" y="220" font-family="Arial, sans-serif" font-size="16" fill="#8A94A7">アップタイム</text>
  <text x="260" y="250" font-family="Arial, sans-serif" font-size="24" font-weight="bold" fill="white">99.98%</text>
  <rect x="260" y="270" width="210" height="10" rx="5" fill="#1E2132"/>
  <rect x="260" y="270" width="209.5" height="10" rx="5" fill="#4CD137"/>
  
  <rect x="510" y="190" width="250" height="120" rx="8" fill="#2D3348"/>
  <text x="530" y="220" font-family="Arial, sans-serif" font-size="16" fill="#8A94A7">署名率</text>
  <text x="530" y="250" font-family="Arial, sans-serif" font-size="24" font-weight="bold" fill="white">99.95%</text>
  <rect x="530" y="270" width="210" height="10" rx="5" fill="#1E2132"/>
  <rect x="530" y="270" width="209" height="10" rx="5" fill="#4CD137"/>
  
  <!-- 最近のブロック -->
  <text x="240" y="340" font-family="Arial, sans-serif" font-size="18" font-weight="bold" fill="white">最近の提案ブロック</text>
  
  <rect x="240" y="360" width="520" height="50" rx="8" fill="#2D3348"/>
  <text x="260" y="390" font-family="Arial, sans-serif" font-size="14" font-weight="bold" fill="white">ブロック #12,345,678</text>
  <text x="420" y="390" font-family="Arial, sans-serif" font-size="14" fill="#8A94A7">トランザクション:</text>
  <text x="520" y="390" font-family="Arial, sans-serif" font-size="14" fill="white">128</text>
  <text x="580" y="390" font-family="Arial, sans-serif" font-size="14" fill="#8A94A7">報酬:</text>
  <text x="620" y="390" font-family="Arial, sans-serif" font-size="14" fill="white">0.5 OPT</text>
  <text x="700" y="390" font-family="Arial, sans-serif" font-size="14" fill="#8A94A7">30秒前</text>
  
  <rect x="240" y="420" width="520" height="50" rx="8" fill="#2D3348"/>
  <text x="260" y="450" font-family="Arial, sans-serif" font-size="14" font-weight="bold" fill="white">ブロック #12,345,670</text>
  <text x="420" y="450" font-family="Arial, sans-serif" font-size="14" fill="#8A94A7">トランザクション:</text>
  <text x="520" y="450" font-family="Arial, sans-serif" font-size="14" fill="white">156</text>
  <text x="580" y="450" font-family="Arial, sans-serif" font-size="14" fill="#8A94A7">報酬:</text>
  <text x="620" y="450" font-family="Arial, sans-serif" font-size="14" fill="white">0.6 OPT</text>
  <text x="700" y="450" font-family="Arial, sans-serif" font-size="14" fill="#8A94A7">5分前</text>
  
  <!-- ステータスバー -->
  <rect x="20" y="460" width="760" height="20" fill="#1E2132"/>
  <circle cx="40" cy="470" r="4" fill="#4CD137"/>
  <text x="55" y="474" font-family="Arial, sans-serif" font-size="12" fill="#8A94A7">ノード接続済み</text>
  <text x="200" y="474" font-family="Arial, sans-serif" font-size="12" fill="#8A94A7">CPU: 12%</text>
  <text x="280" y="474" font-family="Arial, sans-serif" font-size="12" fill="#8A94A7">メモリ: 3.2GB/8GB</text>
  <text x="420" y="474" font-family="Arial, sans-serif" font-size="12" fill="#8A94A7">ディスク: 120GB/500GB</text>
  <text x="600" y="474" font-family="Arial, sans-serif" font-size="12" fill="#8A94A7">ネットワーク: 25Mbps</text>
  <text x="740" y="474" font-family="Arial, sans-serif" font-size="12" fill="#8A94A7" text-anchor="end">v1.5.2</text>
</svg>