<?xml version="1.0" encoding="UTF-8" standalone="no"?>
<svg width="800" height="500" viewBox="0 0 800 500" fill="none" xmlns="http://www.w3.org/2000/svg">
  <rect width="800" height="500" rx="12" fill="#1A1D2E"/>
  <rect x="20" y="20" width="760" height="460" rx="8" fill="#232738"/>
  
  <!-- ヘッダー -->
  <rect x="20" y="20" width="760" height="60" fill="#1E2132"/>
  
  <!-- ロゴ -->
  <circle cx="60" cy="50" r="20" fill="#6C5CE7"/>
  <path d="M60 30C46.7452 30 36 40.7452 36 54C36 67.2548 46.7452 78 60 78C73.2548 78 84 67.2548 84 54C84 40.7452 73.2548 30 60 30ZM60 42C66.6274 42 72 47.3726 72 54C72 60.6274 66.6274 66 60 66C53.3726 66 48 60.6274 48 54C48 47.3726 53.3726 42 60 42Z" fill="white"/>
  <text x="100" y="55" font-family="Arial, sans-serif" font-size="18" font-weight="bold" fill="white">OptimaExplorer</text>
  
  <!-- 検索バー -->
  <rect x="300" y="35" width="400" height="30" rx="15" fill="#2D3348"/>
  <text x="320" y="55" font-family="Arial, sans-serif" font-size="12" fill="#8A94A7">トランザクションハッシュ、ブロック番号、アドレスを検索...</text>
  <circle cx="685" cy="50" r="10" fill="#6C5CE7"/>
  <path d="M689 50L685 54L681 50L685 46L689 50Z" fill="white"/>
  
  <!-- メインコンテンツ -->
  <rect x="40" y="100" width="720" height="80" rx="8" fill="#2D3348"/>
  <text x="60" y="130" font-family="Arial, sans-serif" font-size="16" font-weight="bold" fill="white">ネットワーク概要</text>
  
  <rect x="60" y="150" width="160" height="20" rx="4" fill="#1E2132"/>
  <text x="70" y="165" font-family="Arial, sans-serif" font-size="12" fill="#8A94A7">最新ブロック:</text>
  <text x="160" y="165" font-family="Arial, sans-serif" font-size="12" fill="white">12,345,678</text>
  
  <rect x="240" y="150" width="160" height="20" rx="4" fill="#1E2132"/>
  <text x="250" y="165" font-family="Arial, sans-serif" font-size="12" fill="#8A94A7">平均ブロック時間:</text>
  <text x="360" y="165" font-family="Arial, sans-serif" font-size="12" fill="white">0.5秒</text>
  
  <rect x="420" y="150" width="160" height="20" rx="4" fill="#1E2132"/>
  <text x="430" y="165" font-family="Arial, sans-serif" font-size="12" fill="#8A94A7">トランザクション数:</text>
  <text x="540" y="165" font-family="Arial, sans-serif" font-size="12" fill="white">987,654,321</text>
  
  <rect x="600" y="150" width="160" height="20" rx="4" fill="#1E2132"/>
  <text x="610" y="165" font-family="Arial, sans-serif" font-size="12" fill="#8A94A7">バリデータ数:</text>
  <text x="690" y="165" font-family="Arial, sans-serif" font-size="12" fill="white">100</text>
  
  <!-- 最新ブロック -->
  <text x="40" y="210" font-family="Arial, sans-serif" font-size="18" font-weight="bold" fill="white">最新ブロック</text>
  
  <rect x="40" y="230" width="720" height="60" rx="8" fill="#2D3348"/>
  <text x="60" y="255" font-family="Arial, sans-serif" font-size="14" font-weight="bold" fill="white">ブロック #12,345,678</text>
  <text x="60" y="275" font-family="Arial, sans-serif" font-size="12" fill="#8A94A7">30秒前</text>
  <text x="250" y="255" font-family="Arial, sans-serif" font-size="14" fill="#8A94A7">トランザクション:</text>
  <text x="350" y="255" font-family="Arial, sans-serif" font-size="14" fill="white">128</text>
  <text x="250" y="275" font-family="Arial, sans-serif" font-size="14" fill="#8A94A7">バリデータ:</text>
  <text x="350" y="275" font-family="Arial, sans-serif" font-size="14" fill="white">0x7a3b...f921</text>
  <text x="500" y="255" font-family="Arial, sans-serif" font-size="14" fill="#8A94A7">サイズ:</text>
  <text x="550" y="255" font-family="Arial, sans-serif" font-size="14" fill="white">1.2 MB</text>
  <text x="500" y="275" font-family="Arial, sans-serif" font-size="14" fill="#8A94A7">ガス使用量:</text>
  <text x="580" y="275" font-family="Arial, sans-serif" font-size="14" fill="white">8,765,432</text>
  <rect x="680" y="250" width="60" height="20" rx="10" fill="#6C5CE7"/>
  <text x="710" y="265" font-family="Arial, sans-serif" font-size="12" font-weight="bold" fill="white" text-anchor="middle">詳細</text>
  
  <rect x="40" y="300" width="720" height="60" rx="8" fill="#2D3348"/>
  <text x="60" y="325" font-family="Arial, sans-serif" font-size="14" font-weight="bold" fill="white">ブロック #12,345,677</text>
  <text x="60" y="345" font-family="Arial, sans-serif" font-size="12" fill="#8A94A7">1分前</text>
  <text x="250" y="325" font-family="Arial, sans-serif" font-size="14" fill="#8A94A7">トランザクション:</text>
  <text x="350" y="325" font-family="Arial, sans-serif" font-size="14" fill="white">156</text>
  <text x="250" y="345" font-family="Arial, sans-serif" font-size="14" fill="#8A94A7">バリデータ:</text>
  <text x="350" y="345" font-family="Arial, sans-serif" font-size="14" fill="white">0x3f1c...a842</text>
  <text x="500" y="325" font-family="Arial, sans-serif" font-size="14" fill="#8A94A7">サイズ:</text>
  <text x="550" y="325" font-family="Arial, sans-serif" font-size="14" fill="white">1.5 MB</text>
  <text x="500" y="345" font-family="Arial, sans-serif" font-size="14" fill="#8A94A7">ガス使用量:</text>
  <text x="580" y="345" font-family="Arial, sans-serif" font-size="14" fill="white">9,876,543</text>
  <rect x="680" y="320" width="60" height="20" rx="10" fill="#6C5CE7"/>
  <text x="710" y="335" font-family="Arial, sans-serif" font-size="12" font-weight="bold" fill="white" text-anchor="middle">詳細</text>
  
  <!-- 最新トランザクション -->
  <text x="40" y="390" font-family="Arial, sans-serif" font-size="18" font-weight="bold" fill="white">最新トランザクション</text>
  
  <rect x="40" y="410" width="720" height="60" rx="8" fill="#2D3348"/>
  <text x="60" y="435" font-family="Arial, sans-serif" font-size="14" font-weight="bold" fill="white">0x8f72...e913</text>
  <text x="60" y="455" font-family="Arial, sans-serif" font-size="12" fill="#8A94A7">15秒前</text>
  <text x="250" y="435" font-family="Arial, sans-serif" font-size="14" fill="#8A94A7">From:</text>
  <text x="290" y="435" font-family="Arial, sans-serif" font-size="14" fill="white">0x1a2b...c3d4</text>
  <text x="250" y="455" font-family="Arial, sans-serif" font-size="14" fill="#8A94A7">To:</text>
  <text x="290" y="455" font-family="Arial, sans-serif" font-size="14" fill="white">0x5e6f...g7h8</text>
  <text x="500" y="435" font-family="Arial, sans-serif" font-size="14" fill="#8A94A7">値:</text>
  <text x="530" y="435" font-family="Arial, sans-serif" font-size="14" fill="white">123.45 OPT</text>
  <text x="500" y="455" font-family="Arial, sans-serif" font-size="14" fill="#8A94A7">ステータス:</text>
  <rect x="570" y="440" width="80" height="20" rx="10" fill="#4CD137"/>
  <text x="610" y="455" font-family="Arial, sans-serif" font-size="12" font-weight="bold" fill="white" text-anchor="middle">成功</text>
  <rect x="680" y="430" width="60" height="20" rx="10" fill="#6C5CE7"/>
  <text x="710" y="445" font-family="Arial, sans-serif" font-size="12" font-weight="bold" fill="white" text-anchor="middle">詳細</text>
  
  <!-- フッター -->
  <rect x="20" y="480" width="760" height="1" fill="#2D3348"/>
  <text x="40" y="490" font-family="Arial, sans-serif" font-size="12" fill="#8A94A7">© 2025 OptimaChain</text>
  <text x="740" y="490" font-family="Arial, sans-serif" font-size="12" fill="#8A94A7" text-anchor="end">v1.0.0</text>
</svg>