<?xml version="1.0" encoding="UTF-8" standalone="no"?>
<svg width="800" height="500" viewBox="0 0 800 500" fill="none" xmlns="http://www.w3.org/2000/svg">
  <rect width="800" height="500" rx="12" fill="#1A1D2E"/>
  <rect x="20" y="20" width="760" height="460" rx="8" fill="#232738"/>
  
  <!-- ヘッダー -->
  <rect x="20" y="20" width="760" height="60" fill="#1E2132"/>
  
  <!-- ロゴ -->
  <circle cx="60" cy="50" r="20" fill="#6C5CE7"/>
  <path d="M60 30C46.7452 30 36 40.7452 36 54C36 67.2548 46.7452 78 60 78C73.2548 78 84 67.2548 84 54C84 40.7452 73.2548 30 60 30ZM60 42C66.6274 42 72 47.3726 72 54C72 60.6274 66.6274 66 60 66C53.3726 66 48 60.6274 48 54C48 47.3726 53.3726 42 60 42Z" fill="white"/>
  <text x="100" y="55" font-family="Arial, sans-serif" font-size="18" font-weight="bold" fill="white">OptimaChain テストネット</text>
  
  <!-- ナビゲーション -->
  <text x="400" y="55" font-family="Arial, sans-serif" font-size="14" fill="white">ダッシュボード</text>
  <text x="520" y="55" font-family="Arial, sans-serif" font-size="14" fill="#8A94A7">ファウセット</text>
  <text x="620" y="55" font-family="Arial, sans-serif" font-size="14" fill="#8A94A7">エクスプローラー</text>
  <text x="740" y="55" font-family="Arial, sans-serif" font-size="14" fill="#8A94A7">ドキュメント</text>
  
  <!-- メインコンテンツ -->
  <rect x="40" y="100" width="720" height="120" rx="8" fill="#2D3348"/>
  <text x="60" y="130" font-family="Arial, sans-serif" font-size="18" font-weight="bold" fill="white">テストネット概要</text>
  <text x="60" y="160" font-family="Arial, sans-serif" font-size="14" fill="#8A94A7">OptimaChainテストネットへようこそ！このテストネットでは、OptimaChainの革新的な機能を試すことができます。</text>
  <text x="60" y="190" font-family="Arial, sans-serif" font-size="14" fill="#8A94A7">現在のテストネットバージョン: v0.8.5 (Alpha)</text>
  
  <rect x="60" y="210" width="160" height="20" rx="4" fill="#1E2132"/>
  <text x="70" y="225" font-family="Arial, sans-serif" font-size="12" fill="#8A94A7">ステータス:</text>
  <rect x="140" y="212" width="70" height="16" rx="8" fill="#4CD137"/>
  <text x="175" y="225" font-family="Arial, sans-serif" font-size="12" font-weight="bold" fill="white" text-anchor="middle">稼働中</text>
  
  <!-- ネットワーク統計 -->
  <text x="40" y="260" font-family="Arial, sans-serif" font-size="18" font-weight="bold" fill="white">ネットワーク統計</text>
  
  <rect x="40" y="280" width="230" height="100" rx="8" fill="#2D3348"/>
  <text x="60" y="310" font-family="Arial, sans-serif" font-size="14" fill="#8A94A7">バリデータ数</text>
  <text x="60" y="340" font-family="Arial, sans-serif" font-size="24" font-weight="bold" fill="white">42</text>
  <text x="60" y="365" font-family="Arial, sans-serif" font-size="12" fill="#8A94A7">目標: 100</text>
  
  <rect x="285" y="280" width="230" height="100" rx="8" fill="#2D3348"/>
  <text x="305" y="310" font-family="Arial, sans-serif" font-size="14" fill="#8A94A7">トランザクション数</text>
  <text x="305" y="340" font-family="Arial, sans-serif" font-size="24" font-weight="bold" fill="white">1,234,567</text>
  <text x="305" y="365" font-family="Arial, sans-serif" font-size="12" fill="#8A94A7">過去24時間: +45,678</text>
  
  <rect x="530" y="280" width="230" height="100" rx="8" fill="#2D3348"/>
  <text x="550" y="310" font-family="Arial, sans-serif" font-size="14" fill="#8A94A7">平均TPS</text>
  <text x="550" y="340" font-family="Arial, sans-serif" font-size="24" font-weight="bold" fill="white">528.7</text>
  <text x="550" y="365" font-family="Arial, sans-serif" font-size="12" fill="#8A94A7">最大: 1,245 TPS</text>
  
  <!-- 参加方法 -->
  <text x="40" y="410" font-family="Arial, sans-serif" font-size="18" font-weight="bold" fill="white">テストネットに参加する</text>
  
  <rect x="40" y="430" width="230" height="40" rx="8" fill="#6C5CE7"/>
  <text x="155" y="455" font-family="Arial, sans-serif" font-size="14" font-weight="bold" fill="white" text-anchor="middle">バリデータとして参加</text>
  
  <rect x="285" y="430" width="230" height="40" rx="8" fill="#6C5CE7"/>
  <text x="400" y="455" font-family="Arial, sans-serif" font-size="14" font-weight="bold" fill="white" text-anchor="middle">テストトークンを取得</text>
  
  <rect x="530" y="430" width="230" height="40" rx="8" fill="#6C5CE7"/>
  <text x="645" y="455" font-family="Arial, sans-serif" font-size="14" font-weight="bold" fill="white" text-anchor="middle">ウォレットを接続</text>
  
  <!-- フッター -->
  <rect x="20" y="480" width="760" height="1" fill="#2D3348"/>
  <text x="40" y="490" font-family="Arial, sans-serif" font-size="12" fill="#8A94A7">© 2025 OptimaChain</text>
  <text x="740" y="490" font-family="Arial, sans-serif" font-size="12" fill="#8A94A7" text-anchor="end">テストネットv0.8.5</text>
</svg>