<?xml version="1.0" encoding="UTF-8" standalone="no"?>
<svg width="800" height="500" viewBox="0 0 800 500" fill="none" xmlns="http://www.w3.org/2000/svg">
  <rect width="800" height="500" rx="12" fill="#1A1D2E"/>
  <rect x="20" y="20" width="760" height="460" rx="8" fill="#232738"/>
  
  <!-- サイドバー -->
  <rect x="20" y="20" width="200" height="460" fill="#1E2132"/>
  
  <!-- ロゴ -->
  <circle cx="60" cy="60" r="24" fill="#6C5CE7"/>
  <path d="M60 36C46.7452 36 36 46.7452 36 60C36 73.2548 46.7452 84 60 84C73.2548 84 84 73.2548 84 60C84 46.7452 73.2548 36 60 36ZM60 48C66.6274 48 72 53.3726 72 60C72 66.6274 66.6274 72 60 72C53.3726 72 48 66.6274 48 60C48 53.3726 53.3726 48 60 48Z" fill="white"/>
  <text x="100" y="65" font-family="Arial, sans-serif" font-size="18" font-weight="bold" fill="white">OptimaWallet</text>
  
  <!-- サイドバーメニュー -->
  <rect x="40" y="120" width="160" height="40" rx="4" fill="#2D3348"/>
  <text x="70" y="145" font-family="Arial, sans-serif" font-size="14" fill="white">ダッシュボード</text>
  
  <text x="70" y="195" font-family="Arial, sans-serif" font-size="14" fill="#8A94A7">資産</text>
  <text x="70" y="235" font-family="Arial, sans-serif" font-size="14" fill="#8A94A7">ステーキング</text>
  <text x="70" y="275" font-family="Arial, sans-serif" font-size="14" fill="#8A94A7">トランザクション</text>
  <text x="70" y="315" font-family="Arial, sans-serif" font-size="14" fill="#8A94A7">DApps</text>
  <text x="70" y="355" font-family="Arial, sans-serif" font-size="14" fill="#8A94A7">設定</text>
  
  <!-- メインコンテンツ -->
  <rect x="240" y="40" width="520" height="100" rx="8" fill="#2D3348"/>
  <text x="260" y="70" font-family="Arial, sans-serif" font-size="16" fill="#8A94A7">総資産</text>
  <text x="260" y="110" font-family="Arial, sans-serif" font-size="32" font-weight="bold" fill="white">12,345.67 OPT</text>
  <text x="480" y="110" font-family="Arial, sans-serif" font-size="16" fill="#6C5CE7">≈ $24,691.34 USD</text>
  
  <!-- アクションボタン -->
  <rect x="240" y="160" width="160" height="50" rx="25" fill="#6C5CE7"/>
  <text x="290" y="190" font-family="Arial, sans-serif" font-size="16" font-weight="bold" fill="white">送金</text>
  
  <rect x="420" y="160" width="160" height="50" rx="25" fill="#2D3348"/>
  <text x="470" y="190" font-family="Arial, sans-serif" font-size="16" font-weight="bold" fill="white">受取</text>
  
  <rect x="600" y="160" width="160" height="50" rx="25" fill="#2D3348"/>
  <text x="635" y="190" font-family="Arial, sans-serif" font-size="16" font-weight="bold" fill="white">ステーキング</text>
  
  <!-- 資産リスト -->
  <text x="240" y="250" font-family="Arial, sans-serif" font-size="18" font-weight="bold" fill="white">保有資産</text>
  
  <rect x="240" y="270" width="520" height="70" rx="8" fill="#2D3348"/>
  <circle cx="280" cy="305" r="20" fill="#6C5CE7"/>
  <text x="280" y="310" font-family="Arial, sans-serif" font-size="14" font-weight="bold" fill="white" text-anchor="middle">OPT</text>
  <text x="320" y="295" font-family="Arial, sans-serif" font-size="16" font-weight="bold" fill="white">OptimaChain</text>
  <text x="320" y="320" font-family="Arial, sans-serif" font-size="14" fill="#8A94A7">ネイティブトークン</text>
  <text x="700" y="305" font-family="Arial, sans-serif" font-size="16" font-weight="bold" fill="white" text-anchor="end">10,000.00 OPT</text>
  
  <rect x="240" y="350" width="520" height="70" rx="8" fill="#2D3348"/>
  <circle cx="280" cy="385" r="20" fill="#FF7675"/>
  <text x="280" y="390" font-family="Arial, sans-serif" font-size="14" font-weight="bold" fill="white" text-anchor="middle">USDO</text>
  <text x="320" y="375" font-family="Arial, sans-serif" font-size="16" font-weight="bold" fill="white">OptimaUSD</text>
  <text x="320" y="400" font-family="Arial, sans-serif" font-size="14" fill="#8A94A7">ステーブルコイン</text>
  <text x="700" y="385" font-family="Arial, sans-serif" font-size="16" font-weight="bold" fill="white" text-anchor="end">2,345.67 USDO</text>
  
  <!-- 最近のトランザクション -->
  <text x="240" y="450" font-family="Arial, sans-serif" font-size="18" font-weight="bold" fill="white">最近のトランザクション</text>
  
  <!-- ステータスバー -->
  <rect x="20" y="460" width="760" height="20" fill="#1E2132"/>
  <circle cx="40" cy="470" r="4" fill="#4CD137"/>
  <text x="55" y="474" font-family="Arial, sans-serif" font-size="12" fill="#8A94A7">接続済み</text>
  <text x="740" y="474" font-family="Arial, sans-serif" font-size="12" fill="#8A94A7" text-anchor="end">v1.2.3</text>
</svg>