<?xml version="1.0" encoding="UTF-8" standalone="no"?>
<svg width="800" height="600" viewBox="0 0 800 600" xmlns="http://www.w3.org/2000/svg">
  <style>
    .title { font: bold 24px sans-serif; text-anchor: middle; }
    .shard-title { font: bold 18px sans-serif; text-anchor: middle; fill: white; }
    .beacon-title { font: bold 18px sans-serif; text-anchor: middle; fill: white; }
    .step-label { font: bold 14px sans-serif; text-anchor: middle; }
    .message-structure { font: 14px monospace; }
    .message-field { font: 14px monospace; }
    .feature-title { font: bold 16px sans-serif; }
    .feature-item { font: 14px sans-serif; }
    .shard { rx: 30; ry: 30; }
  </style>

  <!-- Title -->
  <text x="400" y="50" class="title">クロスシャードコミュニケーション</text>

  <!-- Beacon Chain (center) -->
  <circle cx="400" cy="300" r="60" fill="#f1c40f" stroke="#f39c12" stroke-width="3" />
  <text x="400" y="290" class="beacon-title">ビーコン</text>
  <text x="400" y="315" class="beacon-title">チェーン</text>

  <!-- Shards -->
  <!-- Shard 1 (top left) -->
  <rect x="150" y="150" width="120" height="100" class="shard" fill="#e74c3c" stroke="#c0392b" stroke-width="2" />
  <text x="210" y="200" class="shard-title">シャード1</text>

  <!-- Shard 2 (top right) -->
  <rect x="530" y="150" width="120" height="100" class="shard" fill="#3498db" stroke="#2980b9" stroke-width="2" />
  <text x="590" y="200" class="shard-title">シャード2</text>

  <!-- Shard 3 (bottom left) -->
  <rect x="150" y="400" width="120" height="100" class="shard" fill="#2ecc71" stroke="#27ae60" stroke-width="2" />
  <text x="210" y="450" class="shard-title">シャード3</text>

  <!-- Shard 4 (bottom right) -->
  <rect x="530" y="400" width="120" height="100" class="shard" fill="#9b59b6" stroke="#8e44ad" stroke-width="2" />
  <text x="590" y="450" class="shard-title">シャード4</text>

  <!-- Cross-shard transaction example (Shard 1 to Shard 4) -->
  <!-- Step 1: Message from Shard 1 to Beacon -->
  <path d="M 210 250 C 250 280, 300 290, 340 300" fill="none" stroke="#e74c3c" stroke-width="3" marker-end="url(#arrowhead)" />
  <text x="260" y="270" class="step-label" fill="#e74c3c">1. メッセージ送信</text>

  <!-- Step 2: Message from Beacon to Shard 4 -->
  <path d="M 460 300 C 500 310, 520 350, 550 400" fill="none" stroke="#9b59b6" stroke-width="3" marker-end="url(#arrowhead)" />
  <text x="520" y="350" class="step-label" fill="#9b59b6">2. メッセージ転送</text>

  <!-- Step 3: Response from Shard 4 to Beacon (dotted line) -->
  <path d="M 550 400 C 520 350, 500 310, 460 300" fill="none" stroke="#9b59b6" stroke-width="2" stroke-dasharray="5,3" marker-end="url(#arrowhead)" />
  <text x="480" y="330" class="step-label" fill="#9b59b6">3. 応答送信</text>

  <!-- Step 4: Response from Beacon to Shard 1 (dotted line) -->
  <path d="M 340 300 C 300 290, 250 280, 210 250" fill="none" stroke="#e74c3c" stroke-width="2" stroke-dasharray="5,3" marker-end="url(#arrowhead)" />
  <text x="240" y="250" class="step-label" fill="#e74c3c">4. 応答転送</text>

  <!-- Arrow marker definition -->
  <defs>
    <marker id="arrowhead" markerWidth="10" markerHeight="7" refX="9" refY="3.5" orient="auto">
      <polygon points="0 0, 10 3.5, 0 7" />
    </marker>
  </defs>

  <!-- Message structure -->
  <rect x="100" y="520" width="300" height="150" rx="10" ry="10" fill="#f8f9fa" stroke="#ddd" />
  <text x="120" y="540" class="feature-title">クロスシャードメッセージ構造:</text>
  <text x="120" y="565" class="message-structure">Message {</text>
  <text x="140" y="585" class="message-field">  source_shard: ShardID,</text>
  <text x="140" y="605" class="message-field">  destination_shard: ShardID,</text>
  <text x="140" y="625" class="message-field">  message_type: MessageType,</text>
  <text x="140" y="645" class="message-field">  payload: Bytes,</text>
  <text x="140" y="665" class="message-field">  nonce: u64,</text>
  <text x="140" y="685" class="message-field">  signature: Signature</text>
  <text x="120" y="705" class="message-structure">}</text>

  <!-- Features -->
  <rect x="450" y="520" width="250" height="150" rx="10" ry="10" fill="#f8f9fa" stroke="#ddd" />
  <text x="470" y="540" class="feature-title">特徴:</text>
  <text x="470" y="565" class="feature-item">• 低レイテンシー</text>
  <text x="470" y="590" class="feature-item">• 高スループット</text>
  <text x="470" y="615" class="feature-item">• 原子性保証</text>
  <text x="470" y="640" class="feature-item">• セキュリティ</text>
  <text x="470" y="665" class="feature-item">• AI駆動ルーティング最適化</text>
  <text x="470" y="690" class="feature-item">• メッセージバッチング</text>
</svg>