<?xml version="1.0" encoding="UTF-8" standalone="no"?>
<svg width="800" height="600" viewBox="0 0 800 600" xmlns="http://www.w3.org/2000/svg">
  <style>
    .title { font: bold 24px sans-serif; text-anchor: middle; }
    .subtitle { font: bold 20px sans-serif; text-anchor: middle; }
    .description { font: 14px sans-serif; text-anchor: middle; }
    .node { fill: #3498db; stroke: #2980b9; stroke-width: 1; }
    .transaction { fill: #2ecc71; stroke: #27ae60; stroke-width: 1; }
    .shard { fill-opacity: 0.2; stroke-width: 2; }
    .shard-label { font: bold 16px sans-serif; text-anchor: middle; }
    .beacon { fill: #f1c40f; stroke: #f39c12; stroke-width: 2; }
    .beacon-label { font: bold 14px sans-serif; text-anchor: middle; }
    .connection { stroke: #95a5a6; stroke-width: 0.5; stroke-opacity: 0.3; }
    .shard-connection { stroke-width: 2; stroke-opacity: 0.7; fill: none; }
  </style>

  <!-- Title -->
  <text x="400" y="50" class="title">シャーディングの基本概念</text>

  <!-- Dividing line -->
  <line x1="400" y1="100" x2="400" y2="550" stroke="#bdc3c7" stroke-width="2" stroke-dasharray="5,5" />

  <!-- Traditional blockchain (left side) -->
  <text x="200" y="120" class="subtitle">従来のブロックチェーン</text>

  <!-- Nodes in traditional blockchain -->
  <circle cx="120" cy="200" r="10" class="node" />
  <circle cx="160" cy="200" r="10" class="node" />
  <circle cx="200" cy="200" r="10" class="node" />
  <circle cx="240" cy="200" r="10" class="node" />
  <circle cx="280" cy="200" r="10" class="node" />
  
  <circle cx="120" cy="240" r="10" class="node" />
  <circle cx="160" cy="240" r="10" class="node" />
  <circle cx="200" cy="240" r="10" class="node" />
  <circle cx="240" cy="240" r="10" class="node" />
  <circle cx="280" cy="240" r="10" class="node" />

  <!-- Transactions in traditional blockchain -->
  <rect x="140" cy="300" width="20" height="10" class="transaction" />
  <rect x="180" cy="320" width="20" height="10" class="transaction" />
  <rect x="220" cy="340" width="20" height="10" class="transaction" />
  <rect x="140" cy="360" width="20" height="10" class="transaction" />
  <rect x="260" cy="380" width="20" height="10" class="transaction" />

  <!-- Connections between all nodes and all transactions -->
  <!-- Drawing only a subset for clarity -->
  <line x1="120" y1="200" x2="140" y2="300" class="connection" />
  <line x1="160" y1="200" x2="140" y2="300" class="connection" />
  <line x1="200" y1="200" x2="140" y2="300" class="connection" />
  
  <line x1="120" y1="240" x2="180" y2="320" class="connection" />
  <line x1="160" y1="240" x2="180" y2="320" class="connection" />
  <line x1="200" y1="240" x2="180" y2="320" class="connection" />
  
  <line x1="240" y1="200" x2="220" y2="340" class="connection" />
  <line x1="280" y1="200" x2="220" y2="340" class="connection" />
  <line x1="240" y1="240" x2="220" y2="340" class="connection" />

  <!-- Description for traditional blockchain -->
  <rect x="100" y="420" width="200" height="80" rx="10" ry="10" fill="#f8f9fa" stroke="#ddd" />
  <text x="200" y="445" class="description">全ノードが全トランザクションを</text>
  <text x="200" y="465" class="description">処理する必要がある</text>
  <text x="200" y="485" class="description">→ スケーラビリティの制約</text>

  <!-- Sharded blockchain (right side) -->
  <text x="600" y="120" class="subtitle">シャーディングブロックチェーン</text>

  <!-- Beacon chain -->
  <circle cx="600" cy="350" r="25" class="beacon" />
  <text x="600" y="345" class="beacon-label">ビーコン</text>
  <text x="600" y="365" class="beacon-label">チェーン</text>

  <!-- Shards -->
  <!-- Shard 1 -->
  <rect x="480" y="180" width="80" height="60" rx="10" ry="10" class="shard" stroke="#e74c3c" fill="#e74c3c" />
  <text x="520" y="215" class="shard-label">シャード1</text>
  
  <!-- Shard 1 nodes -->
  <circle cx="500" y="200" r="8" class="node" />
  <circle cx="520" y="200" r="8" class="node" />
  <circle cx="540" y="200" r="8" class="node" />
  
  <!-- Shard 1 transactions -->
  <rect x="490" cy="260" width="16" height="8" class="transaction" />
  <rect x="520" cy="260" width="16" height="8" class="transaction" />

  <!-- Shard 2 -->
  <rect x="640" y="180" width="80" height="60" rx="10" ry="10" class="shard" stroke="#3498db" fill="#3498db" />
  <text x="680" y="215" class="shard-label">シャード2</text>
  
  <!-- Shard 2 nodes -->
  <circle cx="660" y="200" r="8" class="node" />
  <circle cx="680" y="200" r="8" class="node" />
  <circle cx="700" y="200" r="8" class="node" />
  
  <!-- Shard 2 transactions -->
  <rect x="650" cy="260" width="16" height="8" class="transaction" />
  <rect x="680" cy="260" width="16" height="8" class="transaction" />

  <!-- Shard 3 -->
  <rect x="480" y="450" width="80" height="60" rx="10" ry="10" class="shard" stroke="#2ecc71" fill="#2ecc71" />
  <text x="520" y="485" class="shard-label">シャード3</text>
  
  <!-- Shard 3 nodes -->
  <circle cx="500" y="470" r="8" class="node" />
  <circle cx="520" y="470" r="8" class="node" />
  <circle cx="540" y="470" r="8" class="node" />
  
  <!-- Shard 3 transactions -->
  <rect x="490" cy="530" width="16" height="8" class="transaction" />
  <rect x="520" cy="530" width="16" height="8" class="transaction" />

  <!-- Shard 4 -->
  <rect x="640" y="450" width="80" height="60" rx="10" ry="10" class="shard" stroke="#9b59b6" fill="#9b59b6" />
  <text x="680" y="485" class="shard-label">シャード4</text>
  
  <!-- Shard 4 nodes -->
  <circle cx="660" y="470" r="8" class="node" />
  <circle cx="680" y="470" r="8" class="node" />
  <circle cx="700" y="470" r="8" class="node" />
  
  <!-- Shard 4 transactions -->
  <rect x="650" cy="530" width="16" height="8" class="transaction" />
  <rect x="680" cy="530" width="16" height="8" class="transaction" />

  <!-- Connections between shards and beacon chain -->
  <path d="M 520 240 C 520 280, 560 320, 580 350" class="shard-connection" stroke="#e74c3c" />
  <path d="M 680 240 C 680 280, 640 320, 620 350" class="shard-connection" stroke="#3498db" />
  <path d="M 520 450 C 520 410, 560 380, 580 350" class="shard-connection" stroke="#2ecc71" />
  <path d="M 680 450 C 680 410, 640 380, 620 350" class="shard-connection" stroke="#9b59b6" />

  <!-- Description for sharded blockchain -->
  <rect x="500" y="300" width="200" height="80" rx="10" ry="10" fill="#f8f9fa" stroke="#ddd" />
  <text x="600" y="325" class="description">各シャードが並行して</text>
  <text x="600" y="345" class="description">トランザクションを処理</text>
  <text x="600" y="365" class="description">→ スケーラビリティの向上</text>
</svg>