<svg width="120" height="40" viewBox="0 0 120 40" fill="none" xmlns="http://www.w3.org/2000/svg">
  <rect width="120" height="40" rx="4" fill="none"/>
  <path d="M20 10H30C35.523 10 40 14.477 40 20C40 25.523 35.523 30 30 30H20C14.477 30 10 25.523 10 20C10 14.477 14.477 10 20 10Z" fill="#0066FF" fill-opacity="0.1"/>
  <path d="M20 15C17.239 15 15 17.239 15 20C15 22.761 17.239 25 20 25H30C32.761 25 35 22.761 35 20C35 17.239 32.761 15 30 15H20Z" fill="#0066FF"/>
  <path d="M50 15H55V25H50V15Z" fill="#0066FF"/>
  <path d="M60 15H65L70 20L75 15H80V25H75V20L70 25L65 20V25H60V15Z" fill="#0066FF"/>
  <path d="M85 15H95C97.761 15 100 17.239 100 20C100 22.761 97.761 25 95 25H85V15ZM90 20H95V20C95 20 95 20 95 20H90V20Z" fill="#0066FF"/>
</svg>