<?xml version="1.0" encoding="UTF-8"?>
<svg width="512" height="512" viewBox="0 0 512 512" fill="none" xmlns="http://www.w3.org/2000/svg">
  <rect width="512" height="512" rx="256" fill="#3B99FC"/>
  <path d="M169.5 175.5C208.5 136.5 272.5 136.5 311.5 175.5L318.5 182.5C320.5 184.5 320.5 187.5 318.5 189.5L304.5 203.5C303.5 204.5 301.5 204.5 300.5 203.5L290.5 193.5C263.5 166.5 217.5 166.5 190.5 193.5L179.5 204.5C178.5 205.5 176.5 205.5 175.5 204.5L161.5 190.5C159.5 188.5 159.5 185.5 161.5 183.5L169.5 175.5ZM342.5 206.5L355.5 219.5C357.5 221.5 357.5 224.5 355.5 226.5L290.5 291.5C288.5 293.5 285.5 293.5 283.5 291.5L237.5 245.5C237 245 236 245 235.5 245.5L189.5 291.5C187.5 293.5 184.5 293.5 182.5 291.5L117.5 226.5C115.5 224.5 115.5 221.5 117.5 219.5L130.5 206.5C132.5 204.5 135.5 204.5 137.5 206.5L183.5 252.5C184 253 185 253 185.5 252.5L231.5 206.5C233.5 204.5 236.5 204.5 238.5 206.5L284.5 252.5C285 253 286 253 286.5 252.5L332.5 206.5C334.5 204.5 337.5 204.5 339.5 206.5H342.5Z" fill="white"/>
</svg>