<svg xmlns="http://www.w3.org/2000/svg" width="512" height="512" viewBox="0 0 512 512" fill="none">
  <path d="M256 64C150.4 64 64 150.4 64 256C64 361.6 150.4 448 256 448C361.6 448 448 361.6 448 256C448 150.4 361.6 64 256 64ZM256 384C185.6 384 128 326.4 128 256C128 185.6 185.6 128 256 128C326.4 128 384 185.6 384 256C384 326.4 326.4 384 256 384Z" fill="#0066FF"/>
  <path d="M256 192C220.8 192 192 220.8 192 256C192 291.2 220.8 320 256 320C291.2 320 320 291.2 320 256C320 220.8 291.2 192 256 192Z" fill="#0066FF"/>
</svg>
